<?xml version="1.0" ?><svg data-name="Layer 1" id="Layer_1" viewBox="0 0 272 272" xmlns="http://www.w3.org/2000/svg"><defs><style>.cls-1{fill:#f06292;}.cls-2{fill:#ffd54f;}.cls-3{fill:#fff176;}.cls-4{fill:#efefef;}</style></defs><title/><circle class="cls-1" cx="68" cy="172" r="44"/><rect class="cls-2" height="167.26" transform="translate(29.08 -35.37) rotate(15.31)" width="16" x="138.17" y="6.9"/><rect class="cls-2" height="167.26" transform="translate(-7.66 9.37) rotate(-4.59)" width="16" x="105.07" y="16.7"/><path class="cls-3" d="M247.63,184a88,88,0,0,0-175.27,0Z"/><circle class="cls-1" cx="156" cy="100" r="12"/><path class="cls-4" d="M80,248H192a0,0,0,0,1,0,0v11a5,5,0,0,1-5,5H85a5,5,0,0,1-5-5V248A0,0,0,0,1,80,248Z"/><path class="cls-4" d="M13.54,184c-4,0-6.74,3.82-5,7.12C31.26,234.22,79.79,264,136,264s104.74-29.78,127.46-72.88c1.74-3.3-1-7.12-5-7.12Z"/></svg>